<mxfile host="Electron" agent="Mozilla/5.0 (Windows NT 10.0; Win64; x64) AppleWebKit/537.36 (KHTML, like Gecko) draw.io/27.0.2 Chrome/134.0.6998.205 Electron/35.3.0 Safari/537.36" version="27.0.2">
  <diagram name="1" id="RZjSkxKJrPnNlx-oAzws">
    <mxGraphModel dx="1097" dy="695" grid="1" gridSize="10" guides="1" tooltips="1" connect="1" arrows="1" fold="1" page="1" pageScale="1" pageWidth="827" pageHeight="1169" math="0" shadow="0">
      <root>
        <mxCell id="0" />
        <mxCell id="1" parent="0" />
        <mxCell id="G0CfRz5XulUcnQB2qD42-3" value="" style="rounded=0;whiteSpace=wrap;html=1;movable=1;resizable=1;rotatable=1;deletable=1;editable=1;locked=0;connectable=1;" parent="1" vertex="1">
          <mxGeometry x="540" y="120" width="820" height="680" as="geometry" />
        </mxCell>
        <mxCell id="G0CfRz5XulUcnQB2qD42-4" value="&lt;font style=&quot;font-size: 36px;&quot;&gt;&lt;b&gt;NaruLab&lt;/b&gt;&lt;/font&gt;" style="text;strokeColor=none;align=center;fillColor=none;html=1;verticalAlign=middle;whiteSpace=wrap;rounded=0;movable=1;resizable=1;rotatable=1;deletable=1;editable=1;locked=0;connectable=1;" parent="1" vertex="1">
          <mxGeometry x="776.8478260869565" y="80" width="346.30434782608694" height="40" as="geometry" />
        </mxCell>
        <mxCell id="Bg5xsPqvBHnzB0R9FUwk-29" style="rounded=0;orthogonalLoop=1;jettySize=auto;html=1;entryX=0.024;entryY=0.59;entryDx=0;entryDy=0;entryPerimeter=0;" edge="1" parent="1" source="G0CfRz5XulUcnQB2qD42-1" target="Bg5xsPqvBHnzB0R9FUwk-2">
          <mxGeometry relative="1" as="geometry">
            <mxPoint x="510" y="690" as="targetPoint" />
          </mxGeometry>
        </mxCell>
        <mxCell id="Bg5xsPqvBHnzB0R9FUwk-30" value="http&amp;lt;s&amp;gt;://narucloud" style="edgeLabel;html=1;align=center;verticalAlign=middle;resizable=0;points=[];" vertex="1" connectable="0" parent="Bg5xsPqvBHnzB0R9FUwk-29">
          <mxGeometry x="-0.2779" y="1" relative="1" as="geometry">
            <mxPoint x="-103" y="-73" as="offset" />
          </mxGeometry>
        </mxCell>
        <mxCell id="Bg5xsPqvBHnzB0R9FUwk-35" style="edgeStyle=none;shape=connector;rounded=0;orthogonalLoop=1;jettySize=auto;html=1;strokeColor=default;align=center;verticalAlign=middle;fontFamily=Helvetica;fontSize=11;fontColor=default;labelBackgroundColor=default;endArrow=classic;entryX=0;entryY=0.5;entryDx=0;entryDy=0;" edge="1" parent="1" source="G0CfRz5XulUcnQB2qD42-1" target="Bg5xsPqvBHnzB0R9FUwk-34">
          <mxGeometry relative="1" as="geometry">
            <mxPoint x="420" y="310" as="targetPoint" />
          </mxGeometry>
        </mxCell>
        <mxCell id="Bg5xsPqvBHnzB0R9FUwk-37" value="&lt;code data-end=&quot;779&quot; data-start=&quot;772&quot;&gt;GET /&amp;nbsp;&lt;/code&gt;http&amp;lt;s&amp;gt;://narucloud&lt;div&gt;with the Host: narucloud header&lt;/div&gt;" style="edgeLabel;html=1;align=center;verticalAlign=middle;resizable=0;points=[];fontFamily=Helvetica;fontSize=11;fontColor=default;labelBackgroundColor=default;" vertex="1" connectable="0" parent="Bg5xsPqvBHnzB0R9FUwk-35">
          <mxGeometry x="-0.0068" y="1" relative="1" as="geometry">
            <mxPoint as="offset" />
          </mxGeometry>
        </mxCell>
        <mxCell id="G0CfRz5XulUcnQB2qD42-1" value="&lt;b&gt;Client&lt;/b&gt;" style="whiteSpace=wrap;html=1;aspect=fixed;" parent="1" vertex="1">
          <mxGeometry x="20" y="280" width="140" height="140" as="geometry" />
        </mxCell>
        <mxCell id="Rdnny44q0RqTdrLzwosV-1" value="" style="rounded=0;whiteSpace=wrap;html=1;" parent="1" vertex="1">
          <mxGeometry x="990" y="210" width="350" height="565" as="geometry" />
        </mxCell>
        <mxCell id="Rdnny44q0RqTdrLzwosV-2" value="&lt;font style=&quot;font-size: 36px;&quot;&gt;&lt;b&gt;Services&lt;/b&gt;&lt;/font&gt;" style="text;strokeColor=none;align=center;fillColor=none;html=1;verticalAlign=middle;whiteSpace=wrap;rounded=0;movable=1;resizable=1;rotatable=1;deletable=1;editable=1;locked=0;connectable=1;" parent="1" vertex="1">
          <mxGeometry x="1025" y="170" width="280" height="40" as="geometry" />
        </mxCell>
        <mxCell id="G0CfRz5XulUcnQB2qD42-7" value="&lt;font style=&quot;font-size: 22px;&quot;&gt;NextCloud&lt;/font&gt;" style="rounded=0;whiteSpace=wrap;html=1;fontStyle=1;fillColor=#d5e8d4;strokeColor=#82b366;" parent="1" vertex="1">
          <mxGeometry x="1015" y="230" width="300" height="60" as="geometry" />
        </mxCell>
        <mxCell id="Bg5xsPqvBHnzB0R9FUwk-32" style="rounded=0;orthogonalLoop=1;jettySize=auto;html=1;entryX=1.013;entryY=0.459;entryDx=0;entryDy=0;exitX=0.001;exitY=0.355;exitDx=0;exitDy=0;exitPerimeter=0;entryPerimeter=0;" edge="1" parent="1" source="Bg5xsPqvBHnzB0R9FUwk-2" target="G0CfRz5XulUcnQB2qD42-1">
          <mxGeometry relative="1" as="geometry">
            <mxPoint x="599.9999999999998" y="611.0454545454544" as="sourcePoint" />
            <mxPoint x="155" y="340" as="targetPoint" />
          </mxGeometry>
        </mxCell>
        <mxCell id="Bg5xsPqvBHnzB0R9FUwk-33" value="&amp;lt;ip address&amp;gt;" style="edgeLabel;html=1;align=center;verticalAlign=middle;resizable=0;points=[];fontFamily=Helvetica;fontSize=11;fontColor=default;labelBackgroundColor=default;" vertex="1" connectable="0" parent="Bg5xsPqvBHnzB0R9FUwk-32">
          <mxGeometry x="-0.0011" y="2" relative="1" as="geometry">
            <mxPoint x="107" y="59" as="offset" />
          </mxGeometry>
        </mxCell>
        <mxCell id="Bg5xsPqvBHnzB0R9FUwk-2" value="&lt;font style=&quot;font-size: 22px;&quot;&gt;PI-Hole&lt;/font&gt;&lt;div&gt;&lt;font style=&quot;color: rgb(255, 102, 102); font-size: 16px;&quot;&gt;&lt;font style=&quot;&quot;&gt;Works as &lt;/font&gt;&lt;font style=&quot;&quot;&gt;DNS Server&lt;/font&gt;&lt;/font&gt;&lt;/div&gt;" style="rounded=0;whiteSpace=wrap;html=1;fontStyle=1;fillColor=#d5e8d4;strokeColor=#82b366;" vertex="1" parent="1">
          <mxGeometry x="605" y="525" width="210" height="250" as="geometry" />
        </mxCell>
        <mxCell id="Bg5xsPqvBHnzB0R9FUwk-24" value="&lt;b&gt;&lt;font style=&quot;font-size: 16px;&quot;&gt;DNS Entries&lt;/font&gt;&lt;/b&gt;" style="text;strokeColor=none;align=center;fillColor=none;html=1;verticalAlign=middle;whiteSpace=wrap;rounded=0;" vertex="1" parent="1">
          <mxGeometry x="640" y="700" width="140" height="30" as="geometry" />
        </mxCell>
        <mxCell id="Bg5xsPqvBHnzB0R9FUwk-26" value="" style="group" vertex="1" connectable="0" parent="1">
          <mxGeometry x="620" y="730" width="180" height="70" as="geometry" />
        </mxCell>
        <mxCell id="Bg5xsPqvBHnzB0R9FUwk-17" value="" style="rounded=0;whiteSpace=wrap;html=1;" vertex="1" parent="Bg5xsPqvBHnzB0R9FUwk-26">
          <mxGeometry width="180" height="16.153846153846153" as="geometry" />
        </mxCell>
        <mxCell id="Bg5xsPqvBHnzB0R9FUwk-18" value="" style="rounded=0;whiteSpace=wrap;html=1;" vertex="1" parent="Bg5xsPqvBHnzB0R9FUwk-26">
          <mxGeometry y="16.153846153846153" width="180" height="16.153846153846153" as="geometry" />
        </mxCell>
        <mxCell id="Bg5xsPqvBHnzB0R9FUwk-27" value="" style="group" vertex="1" connectable="0" parent="Bg5xsPqvBHnzB0R9FUwk-26">
          <mxGeometry width="180" height="32.30769230769231" as="geometry" />
        </mxCell>
        <mxCell id="Bg5xsPqvBHnzB0R9FUwk-19" value="" style="rounded=0;whiteSpace=wrap;html=1;" vertex="1" parent="Bg5xsPqvBHnzB0R9FUwk-27">
          <mxGeometry y="16.153846153846153" width="90" height="16.153846153846153" as="geometry" />
        </mxCell>
        <mxCell id="Bg5xsPqvBHnzB0R9FUwk-20" value="" style="rounded=0;whiteSpace=wrap;html=1;" vertex="1" parent="Bg5xsPqvBHnzB0R9FUwk-27">
          <mxGeometry x="90" y="16.153846153846153" width="90" height="16.153846153846153" as="geometry" />
        </mxCell>
        <mxCell id="Bg5xsPqvBHnzB0R9FUwk-21" value="narucloud" style="rounded=0;whiteSpace=wrap;html=1;" vertex="1" parent="Bg5xsPqvBHnzB0R9FUwk-27">
          <mxGeometry width="90" height="16.153846153846153" as="geometry" />
        </mxCell>
        <mxCell id="Bg5xsPqvBHnzB0R9FUwk-22" value="nextcloud" style="rounded=0;whiteSpace=wrap;html=1;" vertex="1" parent="Bg5xsPqvBHnzB0R9FUwk-27">
          <mxGeometry x="90" width="90" height="16.153846153846153" as="geometry" />
        </mxCell>
        <mxCell id="Bg5xsPqvBHnzB0R9FUwk-38" style="edgeStyle=none;shape=connector;rounded=0;orthogonalLoop=1;jettySize=auto;html=1;entryX=0;entryY=0.5;entryDx=0;entryDy=0;strokeColor=default;align=center;verticalAlign=middle;fontFamily=Helvetica;fontSize=11;fontColor=default;labelBackgroundColor=default;endArrow=classic;" edge="1" parent="1" source="Bg5xsPqvBHnzB0R9FUwk-34" target="G0CfRz5XulUcnQB2qD42-7">
          <mxGeometry relative="1" as="geometry" />
        </mxCell>
        <mxCell id="Bg5xsPqvBHnzB0R9FUwk-34" value="&lt;span style=&quot;font-size: 22px;&quot;&gt;Nginx Proxy Manager&lt;/span&gt;" style="rounded=0;whiteSpace=wrap;html=1;fontStyle=1;fillColor=#d5e8d4;strokeColor=#82b366;" vertex="1" parent="1">
          <mxGeometry x="600" y="170" width="210" height="250" as="geometry" />
        </mxCell>
        <mxCell id="Bg5xsPqvBHnzB0R9FUwk-39" style="edgeStyle=none;shape=connector;rounded=0;orthogonalLoop=1;jettySize=auto;html=1;entryX=0.995;entryY=0.126;entryDx=0;entryDy=0;entryPerimeter=0;strokeColor=default;align=center;verticalAlign=middle;fontFamily=Helvetica;fontSize=11;fontColor=default;labelBackgroundColor=default;endArrow=classic;exitX=-0.002;exitY=0.279;exitDx=0;exitDy=0;exitPerimeter=0;" edge="1" parent="1" source="Bg5xsPqvBHnzB0R9FUwk-34" target="G0CfRz5XulUcnQB2qD42-1">
          <mxGeometry relative="1" as="geometry" />
        </mxCell>
        <mxCell id="Bg5xsPqvBHnzB0R9FUwk-41" value="&lt;span&gt;&lt;font style=&quot;font-size: 9px;&quot;&gt;1&lt;/font&gt;&lt;/span&gt;" style="ellipse;whiteSpace=wrap;html=1;fontFamily=Helvetica;fontSize=11;labelBackgroundColor=default;fillColor=#f8cecc;strokeColor=#b85450;" vertex="1" parent="1">
          <mxGeometry x="170" y="370" width="20" height="20" as="geometry" />
        </mxCell>
        <mxCell id="Bg5xsPqvBHnzB0R9FUwk-44" value="&lt;span&gt;&lt;font style=&quot;font-size: 9px;&quot;&gt;2&lt;/font&gt;&lt;/span&gt;" style="ellipse;whiteSpace=wrap;html=1;fontFamily=Helvetica;fontSize=11;labelBackgroundColor=default;fillColor=#f8cecc;strokeColor=#b85450;" vertex="1" parent="1">
          <mxGeometry x="580" y="575" width="20" height="20" as="geometry" />
        </mxCell>
        <mxCell id="Bg5xsPqvBHnzB0R9FUwk-45" value="&lt;span&gt;&lt;font style=&quot;font-size: 9px;&quot;&gt;3&lt;/font&gt;&lt;/span&gt;" style="ellipse;whiteSpace=wrap;html=1;fontFamily=Helvetica;fontSize=11;labelBackgroundColor=default;fillColor=#f8cecc;strokeColor=#b85450;" vertex="1" parent="1">
          <mxGeometry x="170" y="320" width="20" height="20" as="geometry" />
        </mxCell>
        <mxCell id="Bg5xsPqvBHnzB0R9FUwk-46" value="&lt;span&gt;&lt;font style=&quot;font-size: 9px;&quot;&gt;5&lt;/font&gt;&lt;/span&gt;" style="ellipse;whiteSpace=wrap;html=1;fontFamily=Helvetica;fontSize=11;labelBackgroundColor=default;fillColor=#f8cecc;strokeColor=#b85450;" vertex="1" parent="1">
          <mxGeometry x="570" y="220" width="20" height="20" as="geometry" />
        </mxCell>
        <mxCell id="Bg5xsPqvBHnzB0R9FUwk-47" value="&lt;span&gt;&lt;font style=&quot;font-size: 9px;&quot;&gt;4&lt;/font&gt;&lt;/span&gt;" style="ellipse;whiteSpace=wrap;html=1;fontFamily=Helvetica;fontSize=11;labelBackgroundColor=default;fillColor=#f8cecc;strokeColor=#b85450;" vertex="1" parent="1">
          <mxGeometry x="820" y="250" width="20" height="20" as="geometry" />
        </mxCell>
      </root>
    </mxGraphModel>
  </diagram>
</mxfile>
